<?xml version="1.0" encoding="UTF-8"?>
<svg xmlns="http://www.w3.org/2000/svg" xmlns:xlink="http://www.w3.org/1999/xlink" width="500px" height="500px" viewBox="0 0 74 73" version="1.1">
<defs>
<clipPath id="clip1">
  <path d="M 0.0195312 0 L 73.949219 0 L 73.949219 72.96875 L 0.0195312 72.96875 Z M 0.0195312 0 "/>
</clipPath>
<clipPath id="clip2">
  <path d="M 14 38.824219 L 59.964844 38.824219 L 59.964844 46.394531 L 14 46.394531 Z M 14 38.824219 "/>
</clipPath>
<clipPath id="clip3">
  <path d="M 26.375 26.570312 L 47.589844 26.570312 L 47.589844 37.035156 L 26.375 37.035156 Z M 26.375 26.570312 "/>
</clipPath>
</defs>
<g id="surface1">
<g clip-path="url(#clip1)" clip-rule="nonzero">
<path style="fill-rule:nonzero;fill:rgb(0.392157%,20%,20.392157%);fill-opacity:1;stroke-width:1;stroke-linecap:butt;stroke-linejoin:miter;stroke:rgb(100%,100%,100%);stroke-opacity:1;stroke-miterlimit:4;" d="M 0.00481939 171.426584 C 0.00481939 76.756528 76.758304 0.000000000000003097 171.427577 0.000000000000003097 C 266.09685 0.000000000000003097 342.850334 76.756528 342.850334 171.426584 C 342.850334 266.09664 266.09685 342.853168 171.427577 342.853168 C 76.758304 342.853168 0.00481939 266.09664 0.00481939 171.426584 Z M 171.427577 339.641214 C 264.321574 339.641214 339.64397 264.334653 339.64397 171.426584 C 339.64397 78.518515 264.321574 3.211954 171.427577 3.211954 C 78.515464 3.211954 3.211184 78.518515 3.211184 171.426584 C 3.211184 264.334653 78.515464 339.641214 171.427577 339.641214 Z M 171.427577 339.641214 " transform="matrix(0.215636,0,0,0.212828,0.018492,-0.000000000000000659)"/>
</g>
<path style=" stroke:none;fill-rule:nonzero;fill:rgb(0.392157%,20%,20.392157%);fill-opacity:1;" d="M 72.472656 36.484375 C 72.472656 17.140625 56.582031 1.460938 36.984375 1.460938 C 17.386719 1.460938 1.496094 17.140625 1.496094 36.484375 C 1.496094 55.828125 17.386719 71.507812 36.984375 71.507812 C 56.582031 71.507812 72.472656 55.828125 72.472656 36.484375 Z M 72.472656 36.484375 "/>
<g clip-path="url(#clip2)" clip-rule="nonzero">
<path style=" stroke:none;fill-rule:nonzero;fill:rgb(28.235294%,67.843137%,87.058824%);fill-opacity:1;" d="M 15.042969 39.304688 L 15.042969 41.625 L 18.707031 41.625 L 18.707031 39.304688 L 19.75 39.304688 L 19.75 44.984375 L 18.707031 44.984375 L 18.707031 42.660156 L 15.042969 42.660156 L 15.042969 44.984375 L 14 44.984375 L 14 39.304688 Z M 25.3125 42.121094 L 25.3125 43.566406 C 25.3125 43.707031 25.289062 43.863281 25.238281 44.027344 C 25.1875 44.191406 25.105469 44.34375 24.988281 44.488281 C 24.875 44.628906 24.726562 44.746094 24.542969 44.839844 C 24.363281 44.933594 24.140625 44.984375 23.878906 44.984375 L 21.996094 44.984375 C 21.851562 44.984375 21.695312 44.957031 21.527344 44.910156 C 21.359375 44.859375 21.203125 44.777344 21.0625 44.664062 C 20.917969 44.550781 20.796875 44.40625 20.703125 44.222656 C 20.605469 44.042969 20.558594 43.824219 20.558594 43.566406 C 20.558594 43.421875 20.582031 43.269531 20.632812 43.101562 C 20.683594 42.9375 20.765625 42.78125 20.878906 42.640625 C 20.996094 42.5 21.144531 42.378906 21.324219 42.285156 C 21.507812 42.191406 21.730469 42.144531 21.996094 42.144531 L 23.878906 42.144531 L 23.878906 43.125 L 21.996094 43.125 C 21.851562 43.125 21.742188 43.167969 21.664062 43.253906 C 21.589844 43.339844 21.550781 43.445312 21.550781 43.574219 C 21.550781 43.707031 21.59375 43.8125 21.683594 43.886719 C 21.773438 43.964844 21.878906 44 22 44 L 23.878906 44 C 24.019531 44 24.128906 43.957031 24.207031 43.875 C 24.285156 43.789062 24.324219 43.683594 24.324219 43.558594 L 24.324219 42.121094 C 24.324219 41.984375 24.28125 41.878906 24.195312 41.796875 C 24.113281 41.71875 24.003906 41.679688 23.878906 41.679688 L 21.585938 41.679688 L 21.585938 40.703125 L 23.878906 40.703125 C 24.019531 40.703125 24.175781 40.726562 24.34375 40.777344 C 24.511719 40.828125 24.667969 40.910156 24.808594 41.019531 C 24.953125 41.132812 25.074219 41.277344 25.167969 41.460938 C 25.265625 41.640625 25.3125 41.859375 25.3125 42.121094 Z M 31.011719 42.605469 L 31.011719 44.984375 L 29.96875 44.984375 L 29.96875 42.605469 C 29.96875 42.472656 29.945312 42.351562 29.898438 42.246094 C 29.851562 42.136719 29.789062 42.046875 29.707031 41.96875 C 29.625 41.890625 29.53125 41.832031 29.425781 41.792969 C 29.316406 41.753906 29.199219 41.730469 29.074219 41.730469 L 27.246094 41.730469 L 27.246094 44.984375 L 26.203125 44.984375 L 26.203125 41.210938 C 26.203125 41.140625 26.214844 41.074219 26.242188 41.011719 C 26.269531 40.949219 26.308594 40.894531 26.355469 40.847656 C 26.402344 40.804688 26.460938 40.769531 26.523438 40.742188 C 26.589844 40.714844 26.65625 40.703125 26.730469 40.703125 L 29.082031 40.703125 C 29.210938 40.703125 29.351562 40.714844 29.496094 40.746094 C 29.644531 40.773438 29.785156 40.820312 29.929688 40.886719 C 30.074219 40.949219 30.210938 41.03125 30.339844 41.132812 C 30.46875 41.230469 30.582031 41.351562 30.683594 41.492188 C 30.785156 41.632812 30.863281 41.796875 30.921875 41.980469 C 30.980469 42.164062 31.011719 42.375 31.011719 42.605469 Z M 36.121094 43.539062 C 36.121094 43.714844 36.097656 43.871094 36.050781 44.015625 C 36.003906 44.15625 35.945312 44.28125 35.871094 44.386719 C 35.796875 44.492188 35.707031 44.585938 35.609375 44.660156 C 35.511719 44.734375 35.40625 44.796875 35.300781 44.84375 C 35.191406 44.890625 35.082031 44.925781 34.96875 44.949219 C 34.859375 44.972656 34.753906 44.984375 34.65625 44.984375 L 31.828125 44.984375 L 31.828125 43.953125 L 34.648438 43.953125 C 34.789062 43.953125 34.894531 43.917969 34.96875 43.847656 C 35.039062 43.773438 35.074219 43.671875 35.074219 43.539062 C 35.0625 43.261719 34.921875 43.125 34.65625 43.125 L 33.039062 43.125 C 32.808594 43.125 32.613281 43.085938 32.449219 43.007812 C 32.289062 42.925781 32.160156 42.828125 32.058594 42.710938 C 31.960938 42.589844 31.886719 42.464844 31.84375 42.324219 C 31.796875 42.1875 31.777344 42.058594 31.777344 41.941406 C 31.777344 41.710938 31.820312 41.519531 31.902344 41.359375 C 31.984375 41.203125 32.089844 41.078125 32.214844 40.980469 C 32.339844 40.878906 32.476562 40.808594 32.625 40.765625 C 32.769531 40.722656 32.910156 40.703125 33.039062 40.703125 L 35.601562 40.703125 L 35.601562 41.730469 L 33.046875 41.730469 C 32.992188 41.730469 32.949219 41.738281 32.917969 41.75 C 32.886719 41.761719 32.867188 41.777344 32.851562 41.796875 C 32.835938 41.816406 32.828125 41.835938 32.824219 41.859375 C 32.820312 41.882812 32.820312 41.90625 32.820312 41.925781 C 32.824219 41.96875 32.832031 42 32.84375 42.023438 C 32.859375 42.046875 32.875 42.066406 32.894531 42.074219 C 32.914062 42.085938 32.9375 42.09375 32.964844 42.09375 C 32.988281 42.09375 33.011719 42.09375 33.039062 42.09375 L 34.65625 42.09375 C 34.921875 42.09375 35.148438 42.144531 35.335938 42.238281 C 35.523438 42.332031 35.675781 42.453125 35.789062 42.597656 C 35.90625 42.742188 35.988281 42.898438 36.039062 43.066406 C 36.09375 43.234375 36.121094 43.394531 36.121094 43.539062 Z M 41.453125 45.457031 L 41.453125 46.375 L 36.867188 46.375 L 36.867188 45.457031 Z M 47.253906 42.605469 L 47.253906 44.984375 L 46.210938 44.984375 L 46.210938 42.605469 C 46.210938 42.472656 46.1875 42.351562 46.140625 42.246094 C 46.09375 42.136719 46.03125 42.046875 45.949219 41.96875 C 45.871094 41.890625 45.777344 41.832031 45.667969 41.792969 C 45.558594 41.753906 45.441406 41.730469 45.316406 41.730469 L 43.488281 41.730469 L 43.488281 44.984375 L 42.445312 44.984375 L 42.445312 41.210938 C 42.445312 41.140625 42.460938 41.074219 42.488281 41.011719 C 42.511719 40.949219 42.550781 40.894531 42.597656 40.847656 C 42.648438 40.804688 42.703125 40.769531 42.769531 40.742188 C 42.832031 40.714844 42.898438 40.703125 42.972656 40.703125 L 45.324219 40.703125 C 45.457031 40.703125 45.59375 40.714844 45.738281 40.746094 C 45.886719 40.773438 46.03125 40.820312 46.171875 40.886719 C 46.316406 40.949219 46.453125 41.03125 46.582031 41.132812 C 46.710938 41.230469 46.828125 41.351562 46.925781 41.492188 C 47.027344 41.632812 47.109375 41.796875 47.167969 41.980469 C 47.226562 42.164062 47.253906 42.375 47.253906 42.605469 Z M 52.648438 42.121094 L 52.648438 43.566406 C 52.648438 43.707031 52.621094 43.863281 52.570312 44.027344 C 52.519531 44.191406 52.4375 44.34375 52.324219 44.488281 C 52.210938 44.628906 52.0625 44.746094 51.878906 44.839844 C 51.695312 44.933594 51.472656 44.984375 51.210938 44.984375 L 49.328125 44.984375 C 49.183594 44.984375 49.027344 44.957031 48.863281 44.910156 C 48.695312 44.859375 48.539062 44.777344 48.394531 44.664062 C 48.253906 44.550781 48.132812 44.40625 48.035156 44.222656 C 47.941406 44.042969 47.890625 43.824219 47.890625 43.566406 C 47.890625 43.421875 47.917969 43.269531 47.96875 43.101562 C 48.019531 42.9375 48.101562 42.78125 48.214844 42.640625 C 48.328125 42.5 48.476562 42.378906 48.660156 42.285156 C 48.84375 42.191406 49.066406 42.144531 49.328125 42.144531 L 51.210938 42.144531 L 51.210938 43.125 L 49.328125 43.125 C 49.1875 43.125 49.078125 43.167969 49 43.253906 C 48.921875 43.339844 48.882812 43.445312 48.882812 43.574219 C 48.882812 43.707031 48.925781 43.8125 49.015625 43.886719 C 49.105469 43.964844 49.214844 44 49.335938 44 L 51.210938 44 C 51.351562 44 51.460938 43.957031 51.539062 43.875 C 51.617188 43.789062 51.65625 43.683594 51.65625 43.558594 L 51.65625 42.121094 C 51.65625 41.984375 51.613281 41.878906 51.527344 41.796875 C 51.445312 41.71875 51.339844 41.679688 51.210938 41.679688 L 48.917969 41.679688 L 48.917969 40.703125 L 51.210938 40.703125 C 51.355469 40.703125 51.511719 40.726562 51.679688 40.777344 C 51.84375 40.828125 52 40.910156 52.144531 41.019531 C 52.285156 41.132812 52.40625 41.277344 52.503906 41.460938 C 52.597656 41.640625 52.648438 41.859375 52.648438 42.121094 Z M 57.378906 40.703125 L 57.378906 41.730469 L 55.019531 41.730469 L 55.019531 40.703125 Z M 57.378906 38.84375 L 57.378906 39.875 L 55.027344 39.875 C 54.882812 39.875 54.777344 39.910156 54.703125 39.976562 C 54.632812 40.046875 54.597656 40.152344 54.597656 40.285156 L 54.597656 44.984375 L 53.554688 44.984375 L 53.554688 40.285156 C 53.554688 40.109375 53.578125 39.949219 53.621094 39.8125 C 53.667969 39.671875 53.726562 39.546875 53.804688 39.441406 C 53.878906 39.332031 53.96875 39.242188 54.066406 39.167969 C 54.167969 39.089844 54.269531 39.03125 54.378906 38.980469 C 54.484375 38.933594 54.59375 38.898438 54.703125 38.878906 C 54.816406 38.855469 54.921875 38.84375 55.019531 38.84375 Z M 59.964844 43.953125 L 59.964844 44.984375 L 59.5 44.984375 C 59.351562 44.984375 59.191406 44.957031 59.019531 44.910156 C 58.851562 44.859375 58.691406 44.773438 58.546875 44.660156 C 58.398438 44.546875 58.277344 44.394531 58.179688 44.210938 C 58.085938 44.027344 58.035156 43.804688 58.035156 43.539062 L 58.035156 38.890625 L 59.078125 38.890625 L 59.078125 43.539062 C 59.078125 43.664062 59.121094 43.765625 59.199219 43.839844 C 59.28125 43.914062 59.378906 43.953125 59.5 43.953125 Z M 59.964844 43.953125 "/>
</g>
<g clip-path="url(#clip3)" clip-rule="nonzero">
<path style=" stroke:none;fill-rule:nonzero;fill:rgb(28.235294%,67.843137%,87.058824%);fill-opacity:1;" d="M 42.28125 26.570312 C 41.347656 26.570312 40.433594 26.816406 39.628906 27.277344 L 39.628906 27.226562 L 31.015625 27.226562 C 28.453125 27.226562 26.375 29.277344 26.375 31.804688 C 26.375 34.332031 28.453125 36.382812 31.015625 36.382812 L 39.628906 36.382812 L 39.628906 36.332031 C 41.558594 37.433594 43.984375 37.230469 45.695312 35.816406 C 47.40625 34.402344 48.035156 32.082031 47.269531 30.011719 C 46.507812 27.941406 44.511719 26.566406 42.28125 26.570312 Z M 38.144531 35.074219 L 31.015625 35.074219 C 29.183594 35.074219 27.703125 33.609375 27.703125 31.804688 C 27.703125 30 29.183594 28.535156 31.015625 28.535156 L 38.144531 28.535156 C 36.59375 30.445312 36.59375 33.164062 38.144531 35.074219 Z M 42.28125 35.730469 C 40.085938 35.730469 38.304688 33.972656 38.304688 31.804688 C 38.304688 29.636719 40.085938 27.878906 42.28125 27.878906 C 44.476562 27.878906 46.257812 29.636719 46.257812 31.804688 C 46.257812 33.972656 44.476562 35.730469 42.28125 35.730469 Z M 42.28125 35.730469 "/>
</g>
</g>
</svg>
